<svg width="24" height="24" viewBox="0 0 24 24" fill="none" xmlns="http://www.w3.org/2000/svg">
<path d="M3.23706 19.7559L3.2371 18.4868C3.2371 17.9897 3.60984 17.8337 3.75847 17.7649L9.24225 15.1733C9.63529 14.9926 9.90659 14.6199 9.95937 14.19C9.98545 13.9785 9.95708 13.7639 9.87697 13.5665C9.79686 13.3691 9.66766 13.1955 9.50167 13.0622C8.20448 12.0192 7.60006 9.7265 7.60006 8.50555V5.38055C7.60006 4.07396 9.87131 2.2568 11.9734 2.2568C14.0938 2.2568 16.3429 4.04551 16.3429 5.38055V8.50555C16.3429 9.70834 15.8434 12.0095 14.5037 13.066C14.3357 13.1984 14.2045 13.3718 14.1226 13.5696C14.0407 13.7674 14.0109 13.983 14.0361 14.1956C14.0873 14.6286 14.3598 15.0029 14.755 15.1848L17.9207 16.6943L18.665 15.6379L15.2764 14.0483C17.0063 12.6848 17.5917 10.0063 17.5917 8.50522V5.38022C17.5917 3.31043 14.7307 1.00586 11.9734 1.00586C9.21601 1.00586 6.35127 3.31045 6.35127 5.38022V8.50522C6.35127 9.87059 6.97348 12.6332 8.71992 14.0371L3.23614 16.6293C3.23614 16.6293 1.98828 17.1861 1.98828 17.8793V19.7559C1.98828 20.4465 2.54712 21.0059 3.23612 21.0059H15.7185L14.7038 19.7555L3.23706 19.7559ZM21.7486 15.1392C21.4773 14.926 21.0846 14.9745 20.8723 15.2462L18.2021 19.3245L16.5424 17.6621C16.2986 17.4179 15.903 17.4179 15.6592 17.6621C15.4154 17.9062 15.4154 18.3021 15.6592 18.5462L17.8668 20.757C18.1106 21.0012 18.5058 21.0012 18.7497 20.757C18.809 20.698 18.8533 20.6292 18.8839 20.556L21.8557 16.0165C22.068 15.7448 22.0203 15.3518 21.7486 15.1392Z" fill="#E5E5E5"/>
</svg>
