<svg width="24" height="24" viewBox="0 0 24 24" fill="none" xmlns="http://www.w3.org/2000/svg">
<path d="M13.7967 3.13597C12.8143 2.12135 11.1871 2.12135 10.2047 3.13596L5.40619 8.09169C5.13061 8.37631 4.94542 8.73612 4.87396 9.12579C4.2912 12.3038 4.24819 15.5572 4.74672 18.7495L4.92322 19.8797C4.97897 20.2367 5.28644 20.4998 5.64774 20.4998H9.0007C9.27685 20.4998 9.5007 20.276 9.5007 19.9998V12.9998H14.5007V19.9998C14.5007 20.276 14.7246 20.4998 15.0007 20.4998H18.3536C18.7149 20.4998 19.0224 20.2367 19.0781 19.8797L19.2546 18.7495C19.7532 15.5572 19.7102 12.3038 19.1274 9.12579C19.0559 8.73612 18.8708 8.37631 18.5952 8.0917L13.7967 3.13597Z" fill="#E5E5E5"/>
</svg>
