<svg width="24" height="24" viewBox="0 0 24 24" fill="none" xmlns="http://www.w3.org/2000/svg">
<path d="M7.24452 12.9914C7.11796 13.2633 7.11796 13.575 7.24452 13.8445C8.28046 16.0313 9.88124 17.1562 12.0117 17.1562C14.1422 17.1562 15.743 16.0289 16.7789 13.8445C16.9055 13.575 16.9055 13.2633 16.7812 12.9938L16.7789 12.9914L16.7765 12.9891C15.743 10.8047 14.1422 9.67969 12.0117 9.67969C9.88124 9.67969 8.28046 10.807 7.24452 12.9914ZM12.0117 11.1797C13.4672 11.1797 14.5289 11.8828 15.3187 13.418C14.5312 14.9531 13.4672 15.6562 12.0117 15.6562C10.5562 15.6562 9.49452 14.9531 8.70468 13.418C9.49452 11.8828 10.5562 11.1797 12.0117 11.1797Z" fill="#E5E5E5"/>
<path d="M10.7109 13.4297C10.7109 13.7778 10.8492 14.1116 11.0954 14.3578C11.3415 14.6039 11.6753 14.7422 12.0234 14.7422C12.3715 14.7422 12.7054 14.6039 12.9515 14.3578C13.1977 14.1116 13.3359 13.7778 13.3359 13.4297C13.3359 13.0816 13.1977 12.7478 12.9515 12.5016C12.7054 12.2555 12.3715 12.1172 12.0234 12.1172C11.6753 12.1172 11.3415 12.2555 11.0954 12.5016C10.8492 12.7478 10.7109 13.0816 10.7109 13.4297Z" fill="#E5E5E5"/>
<path d="M20.625 6.99375H12.2109L9.46172 4.36406C9.42656 4.33125 9.37969 4.3125 9.33281 4.3125H3.375C2.96016 4.3125 2.625 4.64766 2.625 5.0625V18.9375C2.625 19.3523 2.96016 19.6875 3.375 19.6875H20.625C21.0398 19.6875 21.375 19.3523 21.375 18.9375V7.74375C21.375 7.32891 21.0398 6.99375 20.625 6.99375ZM19.6875 18H4.3125V6H8.73047L11.5336 8.68125H19.6875V18Z" fill="#E5E5E5"/>
</svg>
