<svg width="22" height="27" viewBox="0 0 22 27" fill="none" xmlns="http://www.w3.org/2000/svg">
<path fill-rule="evenodd" clip-rule="evenodd" d="M12.3334 1.99984C12.3334 1.26346 11.7364 0.666504 11 0.666504C10.2636 0.666504 9.66669 1.26346 9.66669 1.99984V2.99984H8.92346C5.9567 2.99984 3.50124 5.30652 3.31604 8.2675L3.02137 12.9788C2.90902 14.775 2.30597 16.506 1.27789 17.9833C0.348983 19.318 1.17594 21.1615 2.79052 21.3552L7.33335 21.9003V23.3332C7.33335 25.3582 8.97498 26.9998 11 26.9998C13.0251 26.9998 14.6667 25.3582 14.6667 23.3332V21.9003L19.2095 21.3552C20.8241 21.1615 21.651 19.318 20.7221 17.9833C19.6941 16.506 19.091 14.775 18.9787 12.9788L18.684 8.2675C18.4988 5.30652 16.0433 2.99984 13.0766 2.99984H12.3334V1.99984ZM9.33335 23.3332C9.33335 24.2536 10.0795 24.9998 11 24.9998C11.9205 24.9998 12.6667 24.2536 12.6667 23.3332V22.3332H9.33335V23.3332Z" fill="#E5E5E5"/>
</svg>
