<svg width="16" height="16" viewBox="0 0 16 16" fill="none" xmlns="http://www.w3.org/2000/svg">
<path d="M9.15333 2.33977L10.3267 4.68643C10.4867 5.0131 10.9133 5.32643 11.2733 5.38643L13.4 5.73977C14.76 5.96643 15.08 6.9531 14.1 7.92643L12.4467 9.57977C12.1667 9.85977 12.0133 10.3998 12.1 10.7864L12.5733 12.8331C12.9467 14.4531 12.0867 15.0798 10.6533 14.2331L8.66 13.0531C8.3 12.8398 7.70667 12.8398 7.34 13.0531L5.34667 14.2331C3.92 15.0798 3.05333 14.4464 3.42667 12.8331L3.9 10.7864C3.98667 10.3998 3.83333 9.85977 3.55333 9.57977L1.9 7.92643C0.926667 6.9531 1.24 5.96643 2.6 5.73977L4.72667 5.38643C5.08 5.32643 5.50667 5.0131 5.66667 4.68643L6.84 2.33977C7.48 1.06643 8.52 1.06643 9.15333 2.33977Z" fill="#FCA311" stroke="#FCA311" stroke-width="1.5" stroke-linecap="round" stroke-linejoin="round"/>
</svg>
