<svg width="22" height="27" viewBox="0 0 22 27" fill="none" xmlns="http://www.w3.org/2000/svg">
<path fill-rule="evenodd" clip-rule="evenodd" d="M12.3334 2.00008C12.3334 1.2637 11.7365 0.666748 11.0001 0.666748C10.2637 0.666748 9.66675 1.2637 9.66675 2.00008V3.00008H8.92352C5.95676 3.00008 3.5013 5.30676 3.3161 8.26774L3.02143 12.979C2.90909 14.7753 2.30603 16.5063 1.27795 17.9835C0.349044 19.3183 1.176 21.1617 2.79058 21.3554L7.33342 21.9006V23.3334C7.33342 25.3585 8.97504 27.0001 11.0001 27.0001C13.0251 27.0001 14.6667 25.3585 14.6667 23.3334V21.9006L19.2096 21.3554C20.8242 21.1617 21.6511 19.3183 20.7222 17.9835C19.6941 16.5063 19.0911 14.7753 18.9787 12.979L18.684 8.26774C18.4988 5.30677 16.0434 3.00008 13.0766 3.00008H12.3334V2.00008ZM9.33342 23.3334C9.33342 24.2539 10.0796 25.0001 11.0001 25.0001C11.9206 25.0001 12.6667 24.2539 12.6667 23.3334V22.3334H9.33342V23.3334Z" fill="#E5E5E5"/>
</svg>
