<svg width="22" height="16" viewBox="0 0 22 16" fill="none" xmlns="http://www.w3.org/2000/svg">
<path fill-rule="evenodd" clip-rule="evenodd" d="M21.3332 7.99992C21.3332 7.44763 20.8855 6.99992 20.3332 6.99992H1.6665C1.11422 6.99992 0.666504 7.44763 0.666504 7.99992C0.666504 8.5522 1.11422 8.99992 1.6665 8.99992H20.3332C20.8855 8.99992 21.3332 8.5522 21.3332 7.99992Z" fill="#FCA311"/>
<path fill-rule="evenodd" clip-rule="evenodd" d="M21.3332 1.33325C21.3332 0.780967 20.8855 0.333252 20.3332 0.333252H1.6665C1.11422 0.333252 0.666504 0.780967 0.666504 1.33325C0.666504 1.88554 1.11422 2.33325 1.6665 2.33325H20.3332C20.8855 2.33325 21.3332 1.88554 21.3332 1.33325Z" fill="#FCA311"/>
<path fill-rule="evenodd" clip-rule="evenodd" d="M21.3332 14.6666C21.3332 14.1143 20.8855 13.6666 20.3332 13.6666H1.6665C1.11422 13.6666 0.666504 14.1143 0.666504 14.6666C0.666504 15.2189 1.11422 15.6666 1.6665 15.6666H20.3332C20.8855 15.6666 21.3332 15.2189 21.3332 14.6666Z" fill="#FCA311"/>
</svg>
