<svg width="20" height="15" viewBox="0 0 20 15" fill="none" xmlns="http://www.w3.org/2000/svg">
<path d="M6.74991 8.5C6.74991 8.08579 7.08569 7.75 7.49991 7.75H9.24991V6C9.24991 5.58579 9.5857 5.25 9.99991 5.25C10.4141 5.25 10.7499 5.58579 10.7499 6V7.75H12.4999C12.9141 7.75 13.2499 8.08579 13.2499 8.5C13.2499 8.91421 12.9141 9.25 12.4999 9.25H10.7499V11C10.7499 11.4142 10.4141 11.75 9.99991 11.75C9.58569 11.75 9.24991 11.4142 9.24991 11V9.25H7.49991C7.08569 9.25 6.74991 8.91421 6.74991 8.5Z" fill="#1E1E1E"/>
<path fill-rule="evenodd" clip-rule="evenodd" d="M19.1612 4.74679C19.558 7.23303 19.5296 9.76863 19.077 12.2453C18.8747 13.353 17.9483 14.1833 16.8252 14.2636L15.1873 14.3808C11.7335 14.6279 8.26637 14.6279 4.81252 14.3808L3.29851 14.2725C2.10248 14.1869 1.11598 13.3027 0.900458 12.1232C0.463793 9.73327 0.389037 7.29129 0.678696 4.87915L0.951182 2.61004C1.11289 1.26343 2.25529 0.25 3.61158 0.25H5.90314C7.0209 0.25 7.95216 1.04846 8.15768 2.10612L16.4721 2.10612C17.7785 2.10612 18.8912 3.05533 19.0971 4.34535L19.1612 4.74679ZM17.6015 11.9757C18.0235 9.66616 18.05 7.30168 17.6799 4.98322L17.6159 4.58178C17.5261 4.0197 17.0413 3.60612 16.4721 3.60612H7.75926C7.1742 3.60612 6.69991 3.13183 6.69991 2.54677C6.69991 2.10672 6.34319 1.75 5.90314 1.75H3.61158C3.01455 1.75 2.51167 2.19611 2.44048 2.78888L2.168 5.058C1.89627 7.32081 1.9664 9.61162 2.37603 11.8536C2.46856 12.36 2.89208 12.7396 3.40555 12.7763L4.91956 12.8846C8.30214 13.1266 11.6977 13.1266 15.0803 12.8846L16.7181 12.7674C17.1587 12.7359 17.5221 12.4102 17.6015 11.9757Z" fill="#1E1E1E"/>
</svg>
