<svg width="24" height="24" viewBox="0 0 24 24" fill="none" xmlns="http://www.w3.org/2000/svg">
<path fill-rule="evenodd" clip-rule="evenodd" d="M15.1801 16.5942C11.6464 19.4244 6.47382 19.2017 3.19811 15.926C-0.316607 12.4113 -0.316607 6.71277 3.19811 3.19805C6.71283 -0.316668 12.4113 -0.316667 15.926 3.19805C19.2017 6.47376 19.4245 11.6463 16.5943 15.18L23.4685 22.0542C23.859 22.4447 23.859 23.0779 23.4685 23.4684C23.078 23.8589 22.4448 23.8589 22.0543 23.4684L15.1801 16.5942ZM4.61233 14.5118C1.87866 11.7781 1.87866 7.34593 4.61233 4.61226C7.34599 1.87859 11.7782 1.87859 14.5118 4.61226C17.2435 7.34393 17.2455 11.7716 14.5178 14.5057C14.5158 14.5077 14.5138 14.5097 14.5118 14.5117C14.5098 14.5137 14.5078 14.5157 14.5058 14.5178C11.7717 17.2454 7.34399 17.2434 4.61233 14.5118Z" fill="#E5E5E5"/>
</svg>
