<svg width="24" height="24" viewBox="0 0 24 24" fill="none" xmlns="http://www.w3.org/2000/svg">
<g clip-path="url(#clip0_1449_4317)">
<path d="M8.75 1.5V4.5L7.25 5.25L5 3L2 6L4.25 8.25L3.5 9.75H0.5V14.25H3.5L4.25 15.75L2 18L5 21L7.25 18.75L8.75 19.5V22.5H13.25V19.5L14.75 18.75L17 21L20 18L17.75 15.75L18.5 14.25H21.5V9.75H18.5L17.75 8.25L20 6L17 3L14.75 5.25L13.25 4.5V1.5H8.75Z" stroke="#E5E5E5" stroke-width="2" stroke-linecap="round" stroke-linejoin="round"/>
<path d="M11 15C12.6569 15 14 13.6569 14 12C14 10.3431 12.6569 9 11 9C9.34315 9 8 10.3431 8 12C8 13.6569 9.34315 15 11 15Z" stroke="#E5E5E5" stroke-width="2" stroke-linecap="round" stroke-linejoin="round"/>
</g>
<defs>
<clipPath id="clip0_1449_4317">
<rect width="24" height="24" fill="white"/>
</clipPath>
</defs>
</svg>
